<?xml version="1.0" encoding="UTF-8"?>
<svg width="512" height="512" viewBox="0 0 512 512" fill="none" xmlns="http://www.w3.org/2000/svg">
  <circle cx="256" cy="256" r="240" fill="#FF6B00"/>
  <path d="M256 16C123.45 16 16 123.45 16 256s107.45 240 240 240 240-107.45 240-240S388.55 16 256 16zm0 32c114.87 0 208 93.13 208 208S370.87 464 256 464 48 370.87 48 256 141.13 48 256 48z" fill="#000"/>
  <path d="M256 16v480M16 256h480" stroke="#000" stroke-width="32"/>
  <path d="M256 16v480M16 256h480" stroke="#000" stroke-width="32" transform="rotate(45 256 256)"/>
</svg> 